<?xml version="1.0" encoding="UTF-8"?>
<svg xmlns="http://www.w3.org/2000/svg" xmlns:xlink="http://www.w3.org/1999/xlink" width="28px" height="60px" viewBox="0 0 28 59" version="1.1">
<g id="surface1">
<path style=" stroke:none;fill-rule:nonzero;fill:rgb(0%,92.941177%,39.215687%);fill-opacity:1;" d="M 19.207031 6.554688 C 16.691406 3.625 14.523438 0.652344 14.082031 0.0351562 C 14.035156 -0.0117188 13.964844 -0.0117188 13.917969 0.0351562 C 13.476562 0.652344 11.308594 3.625 8.792969 6.554688 C -12.808594 33.570312 12.195312 51.804688 12.195312 51.804688 L 12.402344 51.941406 C 12.589844 54.757812 13.054688 58.804688 13.054688 58.804688 L 14.921875 58.804688 C 14.921875 58.804688 15.386719 54.78125 15.574219 51.941406 L 15.78125 51.78125 C 15.804688 51.78125 40.8125 33.570312 19.207031 6.554688 Z M 13.988281 51.394531 C 13.988281 51.394531 12.871094 50.457031 12.566406 49.976562 L 12.566406 49.929688 L 13.917969 20.507812 C 13.917969 20.417969 14.058594 20.417969 14.058594 20.507812 L 15.410156 49.929688 L 15.410156 49.976562 C 15.105469 50.457031 13.988281 51.394531 13.988281 51.394531 Z M 13.988281 51.394531 "/>
</g>
</svg>
